<svg width="2619" height="3047" viewBox="0 0 2619 3047" fill="none" xmlns="http://www.w3.org/2000/svg">
<path d="M1675.39 173.27C1950.07 -7.42752 2147.57 -46.4468 2619 54.591L2614.19 3047L2609.21 3046.66C2386.07 3031.62 2259.42 3023.08 2050.91 2902.89C1845.46 2833.5 1733.92 2776.29 1502.07 2839.31C1403.71 2876.28 1346.9 2897.21 1155.44 2945.27C939.116 2974.48 817.623 2989.75 587.349 2945.27C389.339 2880.02 267.217 2814.97 0 2572.28V1232.91C159.028 1280.18 252.242 1298.96 428.476 1313.44C693.557 1334.35 904.234 1253.3 972.496 1186.28C1128.21 1058.87 1224.67 925.926 1343.2 660.702C1424.32 428.831 1496.85 322.033 1675.39 173.27Z" fill="url(#paint0_linear_3085_780)" fill-opacity="0.3"/>
<defs>
<linearGradient id="paint0_linear_3085_780" x1="1309.5" y1="0" x2="1309.5" y2="2482.27" gradientUnits="userSpaceOnUse">
<stop stop-color="white"/>
<stop offset="0.634587" stop-color="white" stop-opacity="0.5"/>
<stop offset="1" stop-color="white" stop-opacity="0"/>
<stop offset="1" stop-color="white" stop-opacity="0"/>
</linearGradient>
</defs>
</svg>
