<svg width="23" height="23" viewBox="0 0 23 23" fill="none" xmlns="http://www.w3.org/2000/svg">
<path d="M4.54131 0.328125C2.31559 0.328125 0.523438 2.12027 0.523438 4.34599V18.3147C0.523438 20.5404 2.31559 22.3325 4.54131 22.3325H12.1122V13.7302H9.8375V10.6331H12.1122V7.98704C12.1122 5.90817 13.4562 3.99943 16.5523 3.99943C17.8058 3.99943 18.7328 4.11977 18.7328 4.11977L18.6599 7.01198C18.6599 7.01198 17.7145 7.00305 16.6829 7.00305C15.5664 7.00305 15.3874 7.51747 15.3874 8.37146V10.6331H18.7486L18.6021 13.7302H15.3874V22.3326H18.51C20.7357 22.3326 22.5278 20.5404 22.5278 18.3147V4.34602C22.5278 2.12029 20.7357 0.328147 18.51 0.328147H4.54129L4.54131 0.328125Z" fill="white"/>
</svg>
