<svg width="56" height="56" viewBox="0 0 56 56" fill="none" xmlns="http://www.w3.org/2000/svg">
<path d="M51.5785 16.711C51.2961 15.6078 50.8602 14.5496 50.2836 13.5672C49.7297 12.5452 49.0214 11.6145 48.1837 10.8077C46.9692 9.59952 45.5309 8.63856 43.949 7.97826C40.7647 6.67391 37.1938 6.67391 34.0096 7.97826C32.5144 8.60995 31.1406 9.49643 29.9498 10.5981L29.7748 10.8077L27.5 13.0782L25.2251 10.8077L25.0501 10.5981C23.8594 9.49643 22.4856 8.60995 20.9904 7.97826C17.8061 6.67391 14.2353 6.67391 11.051 7.97826C9.46907 8.63856 8.03081 9.59952 6.81629 10.8077C5.15516 12.4209 3.97927 14.4657 3.4215 16.711C3.12477 17.8512 2.98351 19.0261 3.00153 20.204C3.00153 21.3113 3.14152 22.4152 3.4215 23.4875C3.7149 24.5705 4.13792 25.6143 4.68142 26.5964C5.26839 27.6059 5.9862 28.5337 6.81629 29.3559L27.5 50L48.1837 29.3559C49.0131 28.542 49.7236 27.6094 50.2836 26.5964C51.4202 24.6581 52.0126 22.4499 51.9984 20.204C52.0166 19.0261 51.8753 17.8512 51.5785 16.711ZM48.0787 22.4047C47.6595 24.0007 46.8266 25.4585 45.6638 26.6313L27.43 44.7953L9.19614 26.6313C8.60196 26.034 8.08467 25.3652 7.65624 24.6402C7.25309 23.923 6.93592 23.161 6.7113 22.3697C6.53197 21.5786 6.43811 20.7706 6.43131 19.9595C6.43606 19.1252 6.52992 18.2939 6.7113 17.4794C6.92934 16.6859 7.24682 15.9231 7.65624 15.2089C8.07621 14.4754 8.59418 13.8117 9.19614 13.2179C10.0952 12.3325 11.1515 11.6218 12.3109 11.122C14.6474 10.1891 17.254 10.1891 19.5905 11.122C20.7454 11.6006 21.7883 12.3027 22.6703 13.183L27.43 17.9685L32.1897 13.183C33.071 12.3011 34.1175 11.6009 35.2695 11.122C37.606 10.1891 40.2125 10.1891 42.549 11.122C43.7075 11.6215 44.7644 12.3341 45.6638 13.2179C46.2728 13.7942 46.7838 14.4649 47.1688 15.2089C47.9794 16.6357 48.4017 18.2495 48.3937 19.8897C48.4413 20.7337 48.3706 21.5802 48.1837 22.4047H48.0787Z" fill="white"/>
</svg>
