<svg width="31" height="30" viewBox="0 0 31 30" fill="none" xmlns="http://www.w3.org/2000/svg">
<path d="M15.4621 11.0946C13.3117 11.0946 11.5568 12.8495 11.5568 14.9999C11.5568 17.1503 13.3117 18.9052 15.4621 18.9052C17.6125 18.9052 19.3674 17.1503 19.3674 14.9999C19.3674 12.8495 17.6125 11.0946 15.4621 11.0946ZM27.175 14.9999C27.175 13.3827 27.1897 11.7802 27.0988 10.1659C27.008 8.29091 26.5803 6.62685 25.2092 5.25575C23.8352 3.88173 22.174 3.45693 20.299 3.36611C18.6818 3.27529 17.0793 3.28993 15.465 3.28993C13.8479 3.28993 12.2453 3.27529 10.6311 3.36611C8.75606 3.45693 7.092 3.88466 5.7209 5.25575C4.34688 6.62978 3.92207 8.29091 3.83125 10.1659C3.74043 11.7831 3.75508 13.3856 3.75508 14.9999C3.75508 16.6142 3.74043 18.2196 3.83125 19.8339C3.92207 21.7089 4.34981 23.3729 5.7209 24.744C7.09493 26.1181 8.75606 26.5429 10.6311 26.6337C12.2482 26.7245 13.8508 26.7099 15.465 26.7099C17.0822 26.7099 18.6848 26.7245 20.299 26.6337C22.174 26.5429 23.8381 26.1151 25.2092 24.744C26.5832 23.37 27.008 21.7089 27.0988 19.8339C27.1926 18.2196 27.175 16.6171 27.175 14.9999ZM15.4621 21.0087C12.1369 21.0087 9.45333 18.3251 9.45333 14.9999C9.45333 11.6747 12.1369 8.99111 15.4621 8.99111C18.7873 8.99111 21.4709 11.6747 21.4709 14.9999C21.4709 18.3251 18.7873 21.0087 15.4621 21.0087ZM21.717 10.1483C20.9406 10.1483 20.3137 9.52138 20.3137 8.74501C20.3137 7.96865 20.9406 7.34169 21.717 7.34169C22.4934 7.34169 23.1203 7.96865 23.1203 8.74501C23.1206 8.92936 23.0844 9.11195 23.014 9.28231C22.9435 9.45268 22.8402 9.60747 22.7098 9.73783C22.5795 9.86818 22.4247 9.97154 22.2543 10.042C22.0839 10.1124 21.9014 10.1486 21.717 10.1483Z" fill="#FCFCFC"/>
</svg>
