<svg width="56" height="56" viewBox="0 0 56 56" fill="none" xmlns="http://www.w3.org/2000/svg">
<path fill-rule="evenodd" clip-rule="evenodd" d="M31.3891 16.8412C30.6252 17.3726 29.7635 17.746 28.8542 17.9396C27.9449 18.1332 27.0064 18.1433 26.0932 17.9691C25.18 17.7949 24.3106 17.44 23.5356 16.925C22.7607 16.4101 22.0957 15.7455 21.5795 14.97C21.0633 14.1945 20.7062 13.3236 20.5291 12.4081C20.352 11.4927 20.3584 10.551 20.548 9.6381C20.7376 8.72517 21.1064 7.85925 21.6332 7.09089C22.1599 6.32252 22.8339 5.6671 23.6158 5.16286C25.1595 4.13989 27.0442 3.77167 28.8577 4.13868C30.6713 4.5057 32.2663 5.5781 33.2941 7.12147C34.3218 8.66483 34.6987 10.5536 34.3424 12.375C33.9861 14.1963 32.9255 15.8021 31.3926 16.8412H31.3891ZM29.4466 8.08421C29.0655 7.80912 28.633 7.61379 28.1751 7.50984C27.7171 7.40589 27.243 7.39545 26.7809 7.47914C26.3189 7.56283 25.8783 7.73894 25.4855 7.99699C25.0927 8.25503 24.7556 8.58973 24.4944 8.98117C24.2332 9.3726 24.0532 9.81276 23.965 10.2754C23.8769 10.7381 23.8825 11.2139 23.9814 11.6743C24.0803 12.1348 24.2706 12.5706 24.5409 12.9558C24.8112 13.341 25.156 13.6677 25.5547 13.9164C26.3251 14.3859 27.2463 14.5391 28.1265 14.3441C29.0067 14.1491 29.7779 13.6209 30.2796 12.8696C30.7812 12.1183 30.9746 11.2018 30.8195 10.311C30.6643 9.4202 30.1725 8.62381 29.4466 8.08772V8.08421ZM38.5814 8.18955C39.5908 7.50837 40.8054 7.20162 42.0159 7.32211C43.2265 7.4426 44.3573 7.98279 45.2137 8.84966C45.8239 9.46676 46.2738 10.2246 46.5241 11.0568C46.7743 11.889 46.8172 12.7701 46.6489 13.6228C46.4806 14.4755 46.1064 15.2737 45.559 15.9475C45.0116 16.6213 44.3078 17.15 43.5092 17.4873C42.5502 17.8896 41.4933 17.9956 40.4738 17.7916C39.4544 17.5877 38.5188 17.0832 37.7869 16.3426C37.2368 15.7879 36.8157 15.1181 36.5538 14.381C36.2919 13.644 36.1956 12.858 36.2719 12.0792C36.3481 11.3005 36.595 10.5483 36.9949 9.87646C37.3947 9.20463 37.9377 8.62978 38.5849 8.19306L38.5814 8.18955ZM40.2613 13.8426C40.5899 14.1709 41.035 14.3548 41.4987 14.3538C41.7284 14.3533 41.9556 14.3074 42.1676 14.2188C42.3795 14.1302 42.572 14.0006 42.734 13.8374C42.896 13.6741 43.0244 13.4805 43.1118 13.2675C43.1992 13.0545 43.244 12.8263 43.2435 12.5959C43.243 12.3656 43.1973 12.1376 43.109 11.925C43.0207 11.7123 42.8915 11.5192 42.7287 11.3567C42.4029 11.0279 41.9624 10.839 41.5003 10.83C41.2695 10.8295 41.0408 10.875 40.8276 10.9637C40.6144 11.0524 40.4208 11.1827 40.2581 11.3469C40.0954 11.5111 39.9667 11.7061 39.8796 11.9205C39.7924 12.135 39.7485 12.3646 39.7503 12.5962C39.7514 13.0638 39.9348 13.5124 40.2613 13.8462V13.8426ZM10.6661 44.3132H17.0009V47.842H10.6661C9.55715 47.8319 8.4974 47.3812 7.71919 46.5885C6.93799 45.7929 6.50044 44.7207 6.50122 43.6039V37.2486C6.03001 37.2328 5.56688 37.1213 5.13978 36.921C4.71269 36.7206 4.3305 36.4355 4.01629 36.0828C3.68241 35.7435 3.42039 35.34 3.24596 34.8965C3.07154 34.453 2.98832 33.9787 3.00132 33.5021V25.8406C3.01182 24.1832 3.6663 22.5997 4.82127 21.4234C5.97274 20.2612 7.5302 19.5976 9.16115 19.587H15.601C14.7323 20.6249 14.078 21.8256 13.676 23.1193H9.16115C8.45081 23.1398 7.77494 23.4311 7.2712 23.934C6.7764 24.4443 6.50007 25.1286 6.50122 25.8406V33.6776H10.0011V43.6004C9.99301 43.6961 10.0043 43.7924 10.0344 43.8835C10.0645 43.9747 10.1127 44.0587 10.1761 44.1306C10.3168 44.2397 10.4884 44.3011 10.6661 44.3062V44.3132ZM36.2154 21.4269C35.6427 20.8468 34.9614 20.3859 34.2106 20.0708C33.4599 19.7556 32.6544 19.5924 31.8405 19.5905H23.1608C21.5292 19.6036 19.969 20.2638 18.8209 21.4269C17.6659 22.6032 17.0114 24.1868 17.0009 25.8441V37.0028C16.996 37.9609 17.3595 38.884 18.0159 39.58C18.3305 39.9322 18.7128 40.217 19.1398 40.4173C19.5668 40.6176 20.0297 40.7294 20.5008 40.7458V48.9024C20.4976 49.4591 20.6041 50.011 20.8144 50.5262C21.0246 51.0415 21.3344 51.5099 21.7258 51.9045C22.3558 52.4944 23.1503 52.8771 24.0008 53H31.0006C31.985 52.8703 32.8869 52.3802 33.533 51.6238C34.179 50.8675 34.5236 49.8982 34.5005 48.9024V40.7423C34.9717 40.7265 35.4348 40.615 35.8619 40.4146C36.289 40.2143 36.6712 39.9292 36.9854 39.5765C37.319 39.2378 37.5809 38.8348 37.7553 38.3919C37.9297 37.949 38.0131 37.4753 38.0004 36.9993V25.8406C38.0028 24.1909 37.3622 22.6057 36.2154 21.4234V21.4269ZM34.5005 37.1748H31.0006V48.9024C30.9972 49.0875 30.9218 49.2639 30.7906 49.394C30.7309 49.4649 30.6555 49.5209 30.5704 49.5574C30.4854 49.594 30.393 49.6102 30.3006 49.6046H24.6657C24.4828 49.5961 24.3097 49.5194 24.1802 49.3895C24.0508 49.2596 23.9743 49.0859 23.9658 48.9024V37.1748H20.5008V25.8406C20.5008 25.1278 20.7773 24.4431 21.2708 23.934C21.7746 23.4311 22.4504 23.1398 23.1608 23.1193H31.8405C32.3707 23.1287 32.8867 23.2932 33.325 23.5926C33.7633 23.892 34.1049 24.3133 34.308 24.8047C34.4412 25.1334 34.5067 25.4858 34.5005 25.8406V37.1748ZM44.3352 47.8385H38.0004V44.3097H44.3002C44.4779 44.3047 44.6495 44.2432 44.7902 44.1341C44.8607 44.065 44.9158 43.9817 44.952 43.8898C44.9882 43.7978 45.0046 43.6992 45.0002 43.6004V33.6776H48.5001V25.8406C48.5012 25.1286 48.2249 24.4443 47.7301 23.934C47.2264 23.4311 46.5505 23.1398 45.8402 23.1193H41.3253C40.9235 21.8255 40.2691 20.6248 39.4003 19.587H45.8402C47.4714 19.602 49.0308 20.2619 50.18 21.4234C51.335 22.5997 51.9895 24.1832 52 25.8406V33.5021C52 34.4606 51.6395 35.3806 50.9885 36.0758C50.3375 36.7746 49.4486 37.1924 48.5001 37.2451V43.6004C48.5001 44.7205 48.0626 45.7914 47.2821 46.585C46.5039 47.3776 45.4442 47.8284 44.3352 47.8385ZM13.501 7.29769C12.4596 7.29648 11.4415 7.60731 10.5772 8.19035C9.71295 8.77339 9.04194 9.60207 8.65017 10.5702C8.25478 11.5379 8.15214 12.6011 8.35504 13.627C8.55794 14.6529 9.0574 15.5961 9.79114 16.3391C10.5246 17.0813 11.4619 17.5872 12.4834 17.7923C13.5049 17.9975 14.5641 17.8924 15.5258 17.4907C16.4875 17.0889 17.3079 16.4087 17.8824 15.5369C18.4569 14.6651 18.7592 13.6412 18.7509 12.5962C18.7509 11.1917 18.1979 9.84334 17.2109 8.84966C16.7249 8.35855 16.147 7.96863 15.5103 7.70229C14.8737 7.43596 14.1908 7.29846 13.501 7.29769ZM13.501 14.3623C13.2702 14.3628 13.0416 14.3173 12.8284 14.2286C12.6152 14.1399 12.4216 14.0097 12.2589 13.8454C12.0961 13.6812 11.9675 13.4862 11.8803 13.2718C11.7932 13.0574 11.7492 12.8277 11.7511 12.5962C11.752 12.1298 11.9363 11.6827 12.264 11.352C12.5917 11.0213 13.0362 10.8337 13.501 10.83C13.9644 10.8382 14.4064 11.0272 14.7331 11.357C15.0598 11.6867 15.2456 12.1312 15.251 12.5962C15.2501 13.0625 15.0658 13.5096 14.7381 13.8403C14.4104 14.171 13.9658 14.3586 13.501 14.3623Z" fill="white"/>
</svg>
