<svg width="41" height="31" viewBox="0 0 41 31" fill="none" xmlns="http://www.w3.org/2000/svg">
<path d="M9.72927 12.5819C9.29256 12.5819 8.87348 12.6485 8.45635 12.7092C8.59148 12.2548 8.73052 11.7927 8.95377 11.3775C9.17702 10.7743 9.5256 10.2515 9.87223 9.72467C10.1621 9.15479 10.6732 8.769 11.0492 8.28137C11.4428 7.80746 11.9794 7.49217 12.4044 7.09854C12.8215 6.68729 13.3679 6.48167 13.8026 6.19183C14.2569 5.93137 14.6525 5.6435 15.0755 5.50642L16.1311 5.07167L17.0593 4.68587L16.1095 0.890625L14.9404 1.17262C14.5664 1.26662 14.1101 1.37629 13.5911 1.5075C13.0604 1.60542 12.4944 1.87371 11.8639 2.1185C11.2411 2.39658 10.5204 2.58458 9.85068 3.03108C9.17702 3.458 8.39956 3.81442 7.71414 4.38625C7.05027 4.97571 6.24931 5.48683 5.65789 6.23688C5.01164 6.93796 4.37323 7.67429 3.87777 8.51246C3.30398 9.31146 2.91427 10.1888 2.50302 11.0563C2.13093 11.9239 1.83131 12.811 1.58652 13.6727C1.12239 15.3999 0.91481 17.041 0.834518 18.4451C0.767935 19.8512 0.807101 21.0203 0.889351 21.8663C0.918726 22.2658 0.97356 22.6536 1.01273 22.9219L1.06168 23.2509L1.1126 23.2391C1.46091 24.8662 2.26274 26.3614 3.42532 27.5517C4.58791 28.7421 6.06374 29.579 7.6821 29.9657C9.30047 30.3523 10.9952 30.2729 12.5703 29.7365C14.1454 29.2002 15.5365 28.2289 16.5827 26.9351C17.6288 25.6412 18.2873 24.0775 18.4819 22.425C18.6765 20.7725 18.3993 19.0987 17.6823 17.5972C16.9654 16.0957 15.838 14.8278 14.4305 13.9403C13.0231 13.0527 11.3932 12.5818 9.72927 12.5819ZM31.2709 12.5819C30.8342 12.5819 30.4151 12.6485 29.998 12.7092C30.1331 12.2548 30.2722 11.7927 30.4954 11.3775C30.7187 10.7743 31.0673 10.2515 31.4139 9.72467C31.7037 9.15479 32.2148 8.769 32.5908 8.28137C32.9845 7.80746 33.5211 7.49217 33.946 7.09854C34.3631 6.68729 34.9095 6.48167 35.3443 6.19183C35.7986 5.93137 36.1942 5.6435 36.6172 5.50642L37.6727 5.07167L38.601 4.68587L37.6512 0.890625L36.4821 1.17262C36.108 1.26662 35.6517 1.37629 35.1328 1.5075C34.6021 1.60542 34.0361 1.87371 33.4055 2.1185C32.7847 2.39854 32.0621 2.58458 31.3923 3.03304C30.7187 3.45996 29.9412 3.81637 29.2558 4.38821C28.5919 4.97767 27.791 5.48879 27.1996 6.23688C26.5533 6.93796 25.9149 7.67429 25.4194 8.51246C24.8456 9.31146 24.4559 10.1888 24.0447 11.0563C23.6726 11.9239 23.373 12.811 23.1282 13.6727C22.6641 15.3999 22.4565 17.041 22.3762 18.4451C22.3096 19.8512 22.3488 21.0203 22.431 21.8663C22.4604 22.2658 22.5152 22.6536 22.5544 22.9219L22.6033 23.2509L22.6543 23.2391C23.0026 24.8662 23.8044 26.3614 24.967 27.5517C26.1296 28.7421 27.6054 29.579 29.2238 29.9657C30.8421 30.3523 32.5369 30.2729 34.112 29.7365C35.6871 29.2002 37.0782 28.2289 38.1243 26.9351C39.1705 25.6412 39.8289 24.0775 40.0235 22.425C40.2181 20.7725 39.9409 19.0987 39.224 17.5972C38.507 16.0957 37.3796 14.8278 35.9722 13.9403C34.5648 13.0527 32.9348 12.5818 31.2709 12.5819Z" fill="#FCFCFC"/>
</svg>
