<svg width="56" height="56" viewBox="0 0 56 56" fill="none" xmlns="http://www.w3.org/2000/svg">
<path fill-rule="evenodd" clip-rule="evenodd" d="M49.0003 35.5V5.75L47.2503 4H13.0903C12.2876 4.00888 11.4931 4.16304 10.7453 4.455C9.99154 4.78998 9.31224 5.27212 8.74729 5.87314C8.18233 6.47416 7.74308 7.18196 7.45533 7.955C7.16904 8.64344 7.01469 9.37955 7.00033 10.125V43.375C6.99191 44.1794 7.1467 44.9771 7.45533 45.72C8.07483 47.2145 9.25783 48.408 10.7453 49.045C11.4931 49.337 12.2876 49.4911 13.0903 49.5H14.0003V46H13.0903C12.7411 46.0011 12.3955 45.9296 12.0753 45.79C11.4417 45.5272 10.9382 45.0237 10.6753 44.39C10.5635 44.0631 10.5044 43.7205 10.5003 43.375V41.625C10.5044 41.2795 10.5635 40.9369 10.6753 40.61C10.9382 39.9763 11.4417 39.4728 12.0753 39.21C12.3911 39.0723 12.7318 39.0008 13.0763 39H45.5003V46H31.5003V49.5H47.2503L49.0003 47.75V35.5ZM14.0003 35.5V7.5H45.5003V35.5H14.0003ZM17.5003 11H21.0003V14.5H17.5003V11ZM17.5003 18H21.0003V21.5H17.5003V18ZM21.0003 25H17.5003V28.5H21.0003V25ZM22.7503 47.715L18.4803 53H17.5003V42.5H28.0003V53H27.0203L22.7503 47.715Z" fill="white"/>
</svg>
