<svg width="56" height="56" viewBox="0 0 56 56" fill="none" xmlns="http://www.w3.org/2000/svg">
<path fill-rule="evenodd" clip-rule="evenodd" d="M51.2455 4C38.6453 4.014 27.9432 10.9405 20.3053 18H5.751L4 19.75V30.25L4.51479 31.489L7.98528 34.9575L7.98878 34.989L21.9968 48.989L22.0283 48.9925L25.5268 52.489L26.763 53H37.269L39.02 51.25V36.711C46.0905 29.088 53.014 18.3955 53 5.75L51.2455 4ZM7.502 21.5H16.7578C13.9309 24.4661 11.3266 27.6364 8.96584 30.985L7.502 29.529V21.5ZM27.4634 49.5L25.9926 48.0195C29.3499 45.6734 32.528 43.0809 35.5005 40.2635V49.5H27.4634ZM23.4606 45.496L11.4803 33.5295C14.9543 28.5 29.8413 8.7425 49.449 7.556C48.3073 27.198 28.4825 42.0415 23.4606 45.496ZM14.506 53V49.5H7.502V42.5H4V53H14.506ZM38.1375 26.1655C38.9112 25.007 39.1927 23.5888 38.9202 22.2229C38.6476 20.857 37.8433 19.6552 36.6842 18.882C35.525 18.1088 34.106 17.8274 32.7393 18.0998C31.3726 18.3722 30.1702 19.176 29.3965 20.3345C28.6228 21.4925 28.3411 22.9102 28.6133 24.2758C28.8856 25.6414 29.6894 26.843 30.8481 27.6162C32.0067 28.3895 33.4253 28.671 34.7917 28.399C36.158 28.1269 37.3603 27.3235 38.134 26.1655H38.1375Z" fill="white"/>
</svg>
