<svg width="19" height="22" viewBox="0 0 19 22" fill="none" xmlns="http://www.w3.org/2000/svg">
<path d="M18.5259 9.42476C16.7056 9.42911 14.9299 8.86143 13.4497 7.80189V15.1914C13.4492 16.5601 13.0309 17.8959 12.2507 19.0204C11.4705 20.1448 10.3656 21.0043 9.08373 21.4838C7.80187 21.9634 6.40416 22.0402 5.07749 21.7039C3.75082 21.3676 2.55842 20.6344 1.65974 19.6021C0.761062 18.5699 0.198936 17.2879 0.0485278 15.9276C-0.101881 14.5672 0.166597 13.1934 0.818062 11.9898C1.46953 10.7862 2.47293 9.8101 3.69409 9.19213C4.91526 8.57416 6.29598 8.34374 7.65164 8.53166V12.2483C7.03129 12.0532 6.36514 12.0591 5.74833 12.2651C5.13152 12.4712 4.59558 12.8669 4.21706 13.3957C3.83854 13.9245 3.63679 14.5594 3.64062 15.2097C3.64445 15.86 3.85367 16.4924 4.23839 17.0168C4.62312 17.5411 5.16367 17.9304 5.78287 18.1292C6.40207 18.3279 7.06824 18.326 7.68625 18.1235C8.30426 17.9211 8.84251 17.5286 9.22412 17.002C9.60574 16.4754 9.81121 15.8417 9.8112 15.1914V0.745605H13.4497C13.4472 1.05287 13.473 1.35972 13.5266 1.66227C13.6531 2.33766 13.916 2.98017 14.2992 3.55048C14.6825 4.12079 15.1781 4.60692 15.7557 4.97913C16.5774 5.52247 17.5408 5.81206 18.5259 5.81186V9.42476Z" fill="white"/>
</svg>
