<svg width="22" height="20" viewBox="0 0 22 20" fill="none" xmlns="http://www.w3.org/2000/svg">
<path d="M19.0559 14C19.8423 13.4658 20.4354 12.7001 20.7496 11.8135C21.0638 10.9268 21.0828 9.96511 20.8039 9.06716C20.525 8.1692 19.9626 7.38148 19.198 6.81772C18.4333 6.25396 17.5059 5.94333 16.5497 5.93067H14.7452C14.4422 4.9272 13.9102 4.0047 13.1897 3.23324C12.4691 2.46178 11.579 1.86164 10.5868 1.4784C9.59463 1.09516 8.52655 0.938897 7.46366 1.02147C6.40077 1.10405 5.37102 1.4233 4.45262 1.95498C3.53422 2.48665 2.75132 3.21677 2.16336 4.08989C1.57541 4.96301 1.19787 5.95617 1.05942 6.99394C0.920963 8.03171 1.02523 9.08681 1.36431 10.0791C1.70339 11.0714 2.26835 11.9748 3.0163 12.7207" stroke="white" stroke-width="2" stroke-linecap="round" stroke-linejoin="round"/>
<path d="M11 10V19" stroke="white" stroke-width="2" stroke-linecap="round" stroke-linejoin="round"/>
<path d="M15 14L11 10L7 14" stroke="white" stroke-width="2" stroke-linecap="round" stroke-linejoin="round"/>
</svg>
